# xmcd
#
# Track frame offsets:
#	151
#	27866
#	48535
#	68036
#	86533
#	109450
#	131929
#	155046
#	173881
#	197732
#	218177
#	240420
#	260035
#	280928
#
# Disc length: 3995 seconds
#
# Revision: 1
# Processed by: cddbd v1.5.1PL0 Copyright (c) Steve Scherf et al.
# Submitted via: audiograbber 1.83.01
#
DISCID=d40f990e
DTITLE=Various Artist - 情牽女人心 Vol 2
DYEAR=2002
DGENRE=Chinese Pop
TTITLE0=林憶蓮 - 傷痕
TTITLE1=辛曉琪 - 遺忘
TTITLE2=陳淑樺 - 說 你愛我
TTITLE3=李度 - 為愛犯了罪
TTITLE4=張艾嘉 - 愛的代價
TTITLE5=辛曉琪 - 不如這樣吧
TTITLE6=陳淑樺 - 聰明糊涂\心
TTITLE7=李度 - 愛一個人恨一個人
TTITLE8=林憶連 - 聽說愛情回來過
TTITLE9=辛曉琪 - 荒唐
TTITLE10=張艾嘉 - 因為寂寞
TTITLE11=林憶蓮 - 為你我受冷風吹
TTITLE12=陳淑樺 - 無言的表示
TTITLE13=辛曉琪 - 深情難了
EXTD=
EXTT0=
EXTT1=
EXTT2=
EXTT3=
EXTT4=
EXTT5=
EXTT6=
EXTT7=
EXTT8=
EXTT9=
EXTT10=
EXTT11=
EXTT12=
EXTT13=
PLAYORDER=
